<svg width="1280" height="320" viewBox="0 0 1280 320" xmlns="http://www.w3.org/2000/svg" role="img" aria-label="critical-thinking: a reasoning skill for Claude, distilled from 51 books">
  <defs>
    <radialGradient id="glow" cx="78%" cy="30%" r="75%">
      <stop offset="0%" stop-color="#16213b"/>
      <stop offset="100%" stop-color="#0c1220"/>
    </radialGradient>
  </defs>

  <!-- ground -->
  <rect width="1280" height="320" fill="url(#glow)"/>
  <!-- accent top rule, editorial -->
  <rect x="0" y="0" width="1280" height="6" fill="#f5a524"/>

  <!-- 51 book spines, right side; amber spines mark the load-bearing few -->
  <g transform="translate(788,84)">
    <rect x="0"   y="34" width="5" height="118" fill="#2a3650"/>
    <rect x="8"   y="22" width="5" height="130" fill="#2a3650"/>
    <rect x="16"  y="44" width="5" height="108" fill="#33415f"/>
    <rect x="24"  y="12" width="5" height="140" fill="#f5a524"/>
    <rect x="32"  y="38" width="5" height="114" fill="#2a3650"/>
    <rect x="40"  y="28" width="5" height="124" fill="#33415f"/>
    <rect x="48"  y="50" width="5" height="102" fill="#2a3650"/>
    <rect x="56"  y="18" width="5" height="134" fill="#33415f"/>
    <rect x="64"  y="42" width="5" height="110" fill="#2a3650"/>
    <rect x="72"  y="8"  width="5" height="144" fill="#f5a524"/>
    <rect x="80"  y="36" width="5" height="116" fill="#33415f"/>
    <rect x="88"  y="26" width="5" height="126" fill="#2a3650"/>
    <rect x="96"  y="46" width="5" height="106" fill="#33415f"/>
    <rect x="104" y="20" width="5" height="132" fill="#2a3650"/>
    <rect x="112" y="40" width="5" height="112" fill="#33415f"/>
    <rect x="120" y="30" width="5" height="122" fill="#2a3650"/>
    <rect x="128" y="14" width="5" height="138" fill="#f5a524"/>
    <rect x="136" y="48" width="5" height="104" fill="#33415f"/>
    <rect x="144" y="24" width="5" height="128" fill="#2a3650"/>
    <rect x="152" y="44" width="5" height="108" fill="#33415f"/>
    <rect x="160" y="34" width="5" height="118" fill="#2a3650"/>
    <rect x="168" y="16" width="5" height="136" fill="#33415f"/>
    <rect x="176" y="38" width="5" height="114" fill="#2a3650"/>
    <rect x="184" y="28" width="5" height="124" fill="#33415f"/>
    <rect x="192" y="10" width="5" height="142" fill="#f5a524"/>
    <rect x="200" y="42" width="5" height="110" fill="#2a3650"/>
    <rect x="208" y="32" width="5" height="120" fill="#33415f"/>
    <rect x="216" y="50" width="5" height="102" fill="#2a3650"/>
    <rect x="224" y="22" width="5" height="130" fill="#33415f"/>
    <rect x="232" y="40" width="5" height="112" fill="#2a3650"/>
    <rect x="240" y="12" width="5" height="140" fill="#33415f"/>
    <rect x="248" y="36" width="5" height="116" fill="#2a3650"/>
    <rect x="256" y="26" width="5" height="126" fill="#33415f"/>
    <rect x="264" y="46" width="5" height="106" fill="#2a3650"/>
    <rect x="272" y="18" width="5" height="134" fill="#f5a524"/>
    <rect x="280" y="38" width="5" height="114" fill="#33415f"/>
    <rect x="288" y="30" width="5" height="122" fill="#2a3650"/>
    <rect x="296" y="44" width="5" height="108" fill="#33415f"/>
    <rect x="304" y="20" width="5" height="132" fill="#2a3650"/>
    <rect x="312" y="34" width="5" height="118" fill="#33415f"/>
    <rect x="320" y="48" width="5" height="104" fill="#2a3650"/>
    <rect x="328" y="24" width="5" height="128" fill="#33415f"/>
    <rect x="336" y="14" width="5" height="138" fill="#2a3650"/>
    <rect x="344" y="40" width="5" height="112" fill="#33415f"/>
    <rect x="352" y="28" width="5" height="124" fill="#2a3650"/>
    <rect x="360" y="44" width="5" height="108" fill="#33415f"/>
    <rect x="368" y="8"  width="5" height="144" fill="#f5a524"/>
    <rect x="376" y="36" width="5" height="116" fill="#2a3650"/>
    <rect x="384" y="26" width="5" height="126" fill="#33415f"/>
    <rect x="392" y="42" width="5" height="110" fill="#2a3650"/>
    <rect x="400" y="32" width="5" height="120" fill="#33415f"/>
    <!-- shelf line -->
    <rect x="-6" y="156" width="418" height="2" fill="#3d4b6b"/>
    <text x="0" y="182" font-family="Helvetica Neue, Arial, sans-serif" font-size="15" letter-spacing="1" fill="#8b97ad">51 SOURCES, DISTILLED TO DIRECTIVES</text>
  </g>

  <!-- left: title block -->
  <g transform="translate(72,0)">
    <text x="0" y="92" font-family="Helvetica Neue, Arial, sans-serif" font-size="16" letter-spacing="4" fill="#f5a524">A CLAUDE SKILL &#183; BLIND-EVALED &#183; OPEN SOURCE</text>
    <text x="-4" y="172" font-family="Georgia, 'Times New Roman', serif" font-size="78" fill="#f4efe6">critical-thinking</text>
    <rect x="0" y="196" width="120" height="3" fill="#f5a524"/>
    <text x="0" y="238" font-family="Helvetica Neue, Arial, sans-serif" font-size="22" fill="#c7d0e0">Frame. Check yourself. Quantify. Stress-test. Decide.</text>
    <text x="0" y="272" font-family="Helvetica Neue, Arial, sans-serif" font-size="16" fill="#8b97ad">The working tools of 51 books on judgment, packed into one operating manual.</text>
  </g>
</svg>
